<svg xmlns="http://www.w3.org/2000/svg" viewBox="0 0 400 300">
  <!-- Autoencoder 1 -->
  <g transform="translate(50,50)">
    <circle cx="0" cy="0" r="30" fill="#ff7f0e" opacity="0.7"/>
    <circle cx="20" cy="40" r="10" fill="#ff7f0e"/>
    <circle cx="-20" cy="40" r="10" fill="#ff7f0e" opacity="0.3"/>
    <circle cx="0" cy="60" r="10" fill="#ff7f0e"/>
    <line x1="0" y1="30" x2="20" y2="40" stroke="#ff7f0e" stroke-width="2"/>
    <line x1="0" y1="30" x2="-20" y2="40" stroke="#ff7f0e" stroke-width="2" opacity="0.3"/>
    <line x1="0" y1="30" x2="0" y2="60" stroke="#ff7f0e" stroke-width="2"/>
  </g>
  
  <!-- Autoencoder 2 -->
  <g transform="translate(200,50)">
    <circle cx="0" cy="0" r="30" fill="#2ca02c" opacity="0.7"/>
    <circle cx="20" cy="40" r="10" fill="#2ca02c" opacity="0.3"/>
    <circle cx="-20" cy="40" r="10" fill="#2ca02c"/>
    <circle cx="0" cy="60" r="10" fill="#2ca02c"/>
    <line x1="0" y1="30" x2="20" y2="40" stroke="#2ca02c" stroke-width="2" opacity="0.3"/>
    <line x1="0" y1="30" x2="-20" y2="40" stroke="#2ca02c" stroke-width="2"/>
    <line x1="0" y1="30" x2="0" y2="60" stroke="#2ca02c" stroke-width="2"/>
  </g>
  
  <!-- Autoencoder 3 -->
  <g transform="translate(350,50)">
    <circle cx="0" cy="0" r="30" fill="#1f77b4" opacity="0.7"/>
    <circle cx="20" cy="40" r="10" fill="#1f77b4"/>
    <circle cx="-20" cy="40" r="10" fill="#1f77b4"/>
    <circle cx="0" cy="60" r="10" fill="#1f77b4" opacity="0.3"/>
    <line x1="0" y1="30" x2="20" y2="40" stroke="#1f77b4" stroke-width="2"/>
    <line x1="0" y1="30" x2="-20" y2="40" stroke="#1f77b4" stroke-width="2"/>
    <line x1="0" y1="30" x2="0" y2="60" stroke="#1f77b4" stroke-width="2" opacity="0.3"/>
  </g>
  
  <!-- Merging lines -->
  <line x1="80" y1="100" x2="200" y2="200" stroke="#999" stroke-width="2" stroke-dasharray="5,5"/>
  <line x1="200" y1="100" x2="200" y2="200" stroke="#999" stroke-width="2" stroke-dasharray="5,5"/>
  <line x1="320" y1="100" x2="200" y2="200" stroke="#999" stroke-width="2" stroke-dasharray="5,5"/>
  
  <!-- Solution -->
  <circle cx="200" cy="200" r="40" fill="#d62728" opacity="0.9"/>
  <text x="200" y="205" font-family="Arial" font-size="14" fill="white" text-anchor="middle">sae-evolver</text>
</svg>
